<svg xmlns="http://www.w3.org/2000/svg" viewBox="0 0 100 100" fill="currentColor">
  <circle cx="50" cy="50" r="48" fill="none" stroke="currentColor" stroke-width="2"/>
  <circle cx="50" cy="50" r="8" fill="currentColor"/>
  <circle cx="50" cy="50" r="16" fill="none" stroke="currentColor" stroke-width="1.5"/>
  <circle cx="50" cy="50" r="24" fill="none" stroke="currentColor" stroke-width="1"/>
  <!-- 24 spokes of the Ashoka Chakra -->
  <g stroke="currentColor" stroke-width="1.5">
    <line x1="50" y1="2" x2="50" y2="26"/>
    <line x1="62.2" y1="3.1" x2="56.1" y2="26.6"/>
    <line x1="73.3" y1="8.2" x2="61.4" y2="28.7"/>
    <line x1="82" y1="17" x2="65.3" y2="32.3"/>
    <line x1="87.6" y1="28.4" x2="67.3" y2="37.2"/>
    <line x1="89.9" y1="41" x2="67.4" y2="43"/>
    <line x1="98" y1="50" x2="74" y2="50"/>
    <line x1="89.9" y1="59" x2="67.4" y2="57"/>
    <line x1="87.6" y1="71.6" x2="67.3" y2="62.8"/>
    <line x1="82" y1="83" x2="65.3" y2="67.7"/>
    <line x1="73.3" y1="91.8" x2="61.4" y2="71.3"/>
    <line x1="62.2" y1="96.9" x2="56.1" y2="73.4"/>
    <line x1="50" y1="98" x2="50" y2="74"/>
    <line x1="37.8" y1="96.9" x2="43.9" y2="73.4"/>
    <line x1="26.7" y1="91.8" x2="38.6" y2="71.3"/>
    <line x1="18" y1="83" x2="34.7" y2="67.7"/>
    <line x1="12.4" y1="71.6" x2="32.7" y2="62.8"/>
    <line x1="10.1" y1="59" x2="32.6" y2="57"/>
    <line x1="2" y1="50" x2="26" y2="50"/>
    <line x1="10.1" y1="41" x2="32.6" y2="43"/>
    <line x1="12.4" y1="28.4" x2="32.7" y2="37.2"/>
    <line x1="18" y1="17" x2="34.7" y2="32.3"/>
    <line x1="26.7" y1="8.2" x2="38.6" y2="28.7"/>
    <line x1="37.8" y1="3.1" x2="43.9" y2="26.6"/>
  </g>
</svg>
