<svg xmlns="http://www.w3.org/2000/svg" viewBox="0 0 500 600" fill="none" stroke="currentColor" stroke-width="0.5" opacity="0.06">
  <path d="M250,5 C245,15 220,35 215,45 C200,50 175,55 165,60 C155,75 145,90 140,100 C130,95 115,85 105,80 C95,90 85,105 80,115 C70,115 55,110 45,108 C40,120 35,138 33,148 C23,150 12,148 5,147 C3,160 3,178 5,190 C12,192 23,190 33,192 C35,202 40,220 45,230 C55,228 70,225 80,225 C85,235 95,250 105,258 C115,253 130,245 140,240 C145,250 155,265 165,278 C175,283 200,288 215,293 C220,303 245,323 250,333" />
  <path d="M250,5 C255,15 280,35 285,45 C300,50 325,55 335,60 C345,75 355,90 360,100 C370,95 385,85 395,80 C405,90 415,105 420,115 C430,115 445,110 455,108 C460,120 465,138 467,148 C477,150 488,148 495,147 C497,160 497,178 495,190 C488,192 477,190 467,192 C465,202 460,220 455,230 C445,228 430,225 420,225 C415,235 405,250 395,258 C385,253 370,245 360,240 C355,250 345,265 335,278 C325,283 300,288 285,293 C280,303 255,323 250,333" />
  <path d="M250,333 C245,343 225,360 218,370 C210,385 200,405 195,418 C183,425 165,435 155,442 C150,455 148,475 148,488 C135,493 120,498 110,500 C110,513 115,530 118,542 C107,548 93,555 85,560 C88,572 95,588 100,598 C250,598 250,598 250,598" />
  <path d="M250,333 C255,343 275,360 282,370 C290,385 300,405 305,418 C317,425 335,435 345,442 C350,455 352,475 352,488 C365,493 380,498 390,500 C390,513 385,530 382,542 C393,548 407,555 415,560 C412,572 405,588 400,598 C250,598 250,598 250,598" />
</svg>
